<?xml version="1.0" standalone="no"?>
<!DOCTYPE svg PUBLIC "-//W3C//DTD SVG 20010904//EN"
 "http://www.w3.org/TR/2001/REC-SVG-20010904/DTD/svg10.dtd">
<svg version="1.0" xmlns="http://www.w3.org/2000/svg"
 width="88.000000pt" height="88.000000pt" viewBox="0 0 88.000000 88.000000"
 preserveAspectRatio="xMidYMid meet">
<metadata>
Created by potrace 1.11, written by Peter Selinger 2001-2013
</metadata>
<g transform="translate(0.000000,88.000000) scale(0.100000,-0.100000)"
fill="#000000" stroke="none">
<path d="M207 824 c-4 -4 -7 -78 -7 -165 0 -134 2 -158 16 -163 9 -3 49 -6 90
-6 66 0 74 -2 74 -19 0 -10 -7 -21 -15 -25 -8 -3 -15 -10 -15 -16 0 -6 33 -10
85 -10 52 0 85 4 85 10 0 6 -7 13 -15 16 -8 4 -15 15 -15 25 0 17 8 19 78 19
42 0 83 4 90 8 9 7 12 47 10 168 l-3 159 -226 3 c-124 1 -228 -1 -232 -4z
m443 -164 l0 -140 -210 0 -210 0 0 140 0 140 210 0 210 0 0 -140z m-190 -190
c0 -15 -7 -20 -25 -20 -18 0 -25 5 -25 20 0 15 7 20 25 20 18 0 25 -5 25 -20z"/>
<path d="M452 739 c-6 -13 -21 -53 -36 -88 -30 -73 -31 -81 -13 -81 18 0 82
169 69 182 -8 8 -14 4 -20 -13z"/>
<path d="M303 699 c-29 -17 -53 -35 -53 -40 0 -5 27 -22 60 -39 44 -22 60 -27
60 -16 0 8 -17 24 -37 36 l-37 22 37 21 c20 11 37 27 37 34 0 19 -9 16 -67
-18z"/>
<path d="M500 717 c0 -7 16 -21 35 -31 19 -11 35 -22 35 -26 0 -3 -16 -14 -35
-23 -19 -9 -35 -24 -35 -32 0 -12 13 -9 60 15 33 17 60 35 60 40 0 9 -97 70
-112 70 -5 0 -8 -6 -8 -13z"/>
<path d="M354 342 c-57 -59 -110 -71 -190 -42 -32 11 -60 20 -63 20 -9 0 72
-60 83 -61 63 -6 87 -2 138 24 l57 28 38 -25 c82 -55 182 -53 246 4 34 29 34
29 55 10 22 -21 52 -27 52 -11 0 5 -16 23 -35 40 -29 26 -39 29 -55 21 -11 -6
-20 -14 -20 -18 0 -20 -76 -47 -130 -46 -55 1 -89 14 -136 57 -21 18 -22 18
-40 -1z"/>
<path d="M233 154 c-42 -30 -71 -39 -158 -50 -11 -1 -24 -3 -30 -4 -5 -1 -1
-5 10 -9 29 -12 120 -5 152 12 16 8 41 21 56 30 27 14 31 14 76 -14 78 -49
181 -46 244 7 36 30 41 30 74 -5 39 -40 85 -61 133 -61 34 0 40 3 40 21 0 15
-4 19 -16 15 -29 -11 -95 15 -139 55 -49 46 -71 48 -105 13 -60 -64 -163 -62
-243 5 -28 24 -43 21 -94 -15z"/>
</g>
</svg>
