<?xml version="1.0" standalone="no"?>
<!DOCTYPE svg PUBLIC "-//W3C//DTD SVG 20010904//EN"
 "http://www.w3.org/TR/2001/REC-SVG-20010904/DTD/svg10.dtd">
<svg version="1.0" xmlns="http://www.w3.org/2000/svg"
 width="200.000000pt" height="200.000000pt" viewBox="0 0 200.000000 200.000000"
 preserveAspectRatio="xMidYMid meet">
<metadata>
Created by potrace 1.11, written by Peter Selinger 2001-2013
</metadata>
<g transform="translate(0.000000,200.000000) scale(0.100000,-0.100000)"
fill="#000000" stroke="none">
<path d="M843 1886 c-355 -68 -632 -329 -720 -683 -26 -103 -23 -323 6 -428
87 -322 336 -567 661 -649 134 -34 324 -31 453 8 335 100 569 355 642 696 22
107 14 306 -19 413 -100 333 -363 574 -701 642 -66 14 -252 14 -322 1z m284
-61 c337 -48 622 -320 693 -660 20 -95 16 -276 -9 -370 -96 -365 -421 -623
-791 -628 -126 -1 -182 6 -278 39 -444 149 -681 620 -533 1060 98 290 363 514
660 558 89 13 176 13 258 1z"/>
<path d="M660 1575 c-16 -19 -20 -408 -5 -439 10 -19 20 -21 130 -23 66 0 125
-2 131 -2 13 -1 14 -69 1 -88 -4 -7 -15 -9 -24 -6 -11 4 -14 3 -9 -5 5 -8 41
-12 112 -11 59 0 102 5 98 10 -3 5 -13 9 -23 9 -14 0 -17 8 -17 40 1 23 6 44
13 48 6 4 61 6 121 5 76 -1 116 2 128 11 15 12 17 35 18 222 0 115 -3 217 -7
227 -6 16 -31 17 -330 17 -277 0 -326 -2 -337 -15z m649 -14 c7 -11 9 -391 2
-423 0 -5 -145 -8 -320 -8 -296 0 -320 1 -324 18 -11 38 -2 413 10 420 6 4
149 7 318 7 248 0 307 -3 314 -14z m-281 -450 c7 -1 12 -17 12 -45 0 -48 -11
-57 -67 -49 -30 5 -31 8 -31 48 0 46 8 53 53 49 11 -1 26 -3 33 -3z"/>
<path d="M982 1354 c-28 -69 -47 -124 -41 -122 14 5 109 237 100 243 -4 2 -31
-52 -59 -121z"/>
<path d="M803 1400 c-40 -23 -73 -44 -73 -48 0 -11 149 -91 154 -83 5 7 -98
71 -115 71 -23 0 -3 19 56 53 61 35 76 47 58 47 -5 0 -41 -18 -80 -40z"/>
<path d="M1100 1431 c0 -6 27 -24 60 -41 33 -17 60 -34 60 -38 0 -4 -30 -23
-66 -42 -36 -19 -61 -36 -55 -38 15 -5 152 70 148 82 -5 15 -147 90 -147 77z"/>
<path d="M851 861 c-22 -22 -56 -47 -78 -56 -55 -24 -153 -16 -220 19 -61 30
-67 23 -20 -21 80 -77 208 -76 318 3 46 32 47 32 66 14 11 -10 47 -32 81 -50
46 -24 76 -32 129 -35 88 -4 145 14 207 65 l49 41 32 -31 c31 -30 75 -41 75
-17 0 7 -22 34 -49 60 -56 52 -64 52 -120 4 -109 -94 -251 -93 -378 4 l-53 40
-39 -40z"/>
<path d="M1204 634 c-52 -51 -113 -76 -187 -76 -70 -1 -114 15 -170 60 -65 53
-81 52 -160 -11 -48 -37 -137 -65 -216 -68 -58 -2 -74 -10 -50 -25 6 -4 44 -7
83 -6 81 0 151 21 212 63 47 32 69 31 117 -5 55 -42 107 -59 182 -59 83 -1
130 13 181 54 62 49 77 48 138 -9 29 -28 70 -58 91 -66 47 -20 125 -21 151 -2
28 21 9 34 -58 40 -71 6 -119 31 -185 95 -29 28 -61 51 -72 51 -10 0 -36 -16
-57 -36z"/>
</g>
</svg>
